<?xml version="1.0" encoding="utf-8"?>
<!-- Generator: Adobe Illustrator 16.0.0, SVG Export Plug-In . SVG Version: 6.00 Build 0)  -->
<!DOCTYPE svg PUBLIC "-//W3C//DTD SVG 1.1//EN" "http://www.w3.org/Graphics/SVG/1.1/DTD/svg11.dtd">
<svg version="1.1" xmlns="http://www.w3.org/2000/svg" xmlns:xlink="http://www.w3.org/1999/xlink" x="0px" y="0px" width="512px"
	 height="512px" viewBox="0 0 512 512" enable-background="new 0 0 512 512" xml:space="preserve">
<g id="Layer_1">
</g>
<g id="Layer_1_copy">
	<g>
		<path fill="#FFFFFF" d="M85.789,317.405c2.008-13.729,15.426-23.137,29.972-21.011c4.913,0.719,12.346,3.767,15.959,6.553
			c5.965,1.719,28.199-6.31,35.608-10.22l107.148-72.658c40.536-23.746,71.874-55.65,72.092-57.68
			c-1.156-4.959-1.66-17.243-0.452-22.708c3.864-17.475,19.455-28.887,34.823-25.488c15.368,3.398,24.693,20.32,20.828,37.794
			c-2.288,10.343-4.959,14.286-12.985,18.567c5.223-1.787,7.406,2.274,13.215,4.037c14.063,4.272,22.2,18.496,18.169,31.772
			c-4.03,13.276-18.702,20.579-32.768,16.307c-6.734-2.044-12.098-6.375-15.428-11.788c-1.258-0.27-13.375,0.577-20.86,5.091
			l-2.679,1.774c-0.062,0.047-0.124,0.084-0.189,0.131l0.019-0.019L167.197,341.366c-4.762,4.332-7.606,9.146-8.65,11.107
			c2.675,5.1,4.048,11.247,3.604,17.775c-1.115,16.354-13.167,28.852-26.922,27.916c-13.753-0.938-24-14.955-22.885-31.307
			c0.646-9.505-1.106-14.412,5.118-19.432c-4.531,1.977-3.624-0.531-8.969-1.313C93.947,343.987,83.783,331.135,85.789,317.405z"/>
		<polygon fill="#BBBCBC" points="239.571,290.318 204.841,266.783 212.304,260.756 247.033,285.151 		"/>
		<path fill="#BBBCBC" d="M371.972,210.884c0,0,11.425,7.871,27.114,3.662c15.691-4.209,21.814-8.036,21.432-20.666l3.826,7.653
			l-3.826,14.16c0,0-14.925,10.333-16.456,10.716c-1.53,0.382-15.308,0.766-16.838,0.766c-1.531,0-12.63-8.42-12.63-8.42
			L371.972,210.884z"/>
		<path fill="#BBBCBC" d="M403.68,144.513c0,0-4.208,13.011-11.48,16.456c-7.272,3.444-13.013,8.036-18.753,8.036
			c0,0,12.245,3.444,21.813-0.765c9.568-4.21,12.246-20.666,12.246-20.666L403.68,144.513z"/>
		<path fill="#BBBCBC" d="M348.572,129.971c0,0-8.42,22.961,9.185,37.887c0,0-13.396-3.828-13.396-11.481
			C344.361,144.292,345.893,132.649,348.572,129.971z"/>
		<path fill="#BBBCBC" d="M371.972,210.884c0,0-7.708-7.054-21.104-0.931c0,0-41.715,28.318-63.91,43.244
			c-22.195,14.924-100.647,70.417-111.746,78.453c-11.099,8.036-16.665,20.824-16.665,20.824l127.645-87.797l41.331-28.318
			l40.949-20.282L371.972,210.884z"/>
		<path fill="#BBBCBC" d="M114.364,347.339c5.357,0,25.257-13.777,26.023-18.369c0,0-23.343,13.014-35.207,11.865
			c-11.864-1.149-18.369-18.508-18.369-11.482c0,0.386,3.062,16.84,8.037,17.986C99.822,348.486,114.364,347.339,114.364,347.339z"
			/>
		<path fill="#BBBCBC" d="M163.732,366.475L162.2,387.14c0,0-5.357,6.889-10.715,8.802c-5.358,1.914-14.924,4.211-17.604,4.211
			c-2.68,0-14.926-5.741-14.926-5.741l-7.654-16.456l-0.766-4.593l0.766-5.357c0,0,9.568,20.667,20.283,21.432
			c10.715,0.764,18.751-0.768,21.431-5.742C155.695,378.722,164.115,372.213,163.732,366.475z"/>
		<path fill="#010101" d="M375.469,113.595c1.814,0,3.644,0.195,5.472,0.599c15.368,3.398,24.693,20.32,20.828,37.794
			c-2.288,10.343-4.959,14.286-12.985,18.567c0.909-0.31,1.726-0.444,2.484-0.444c3.607,0,5.93,3.025,10.73,4.481
			c14.063,4.272,22.2,18.496,18.169,31.772c-3.251,10.705-13.422,17.527-24.612,17.527c-2.687,0-5.431-0.393-8.155-1.22
			c-6.734-2.044-12.098-6.375-15.428-11.788c-0.137-0.029-0.397-0.045-0.765-0.045c-3.048,0-13.417,1.108-20.096,5.137l-2.679,1.774
			c-0.062,0.047-0.124,0.084-0.189,0.131l0.019-0.019L167.197,341.366c-4.762,4.332-7.606,9.146-8.65,11.107
			c2.675,5.1,4.048,11.247,3.604,17.775c-1.076,15.777-12.331,27.965-25.474,27.965c-0.48,0-0.962-0.015-1.448-0.049
			c-13.753-0.938-24-14.955-22.885-31.307c0.646-9.505-1.106-14.412,5.118-19.432c-1.23,0.535-2.059,0.742-2.721,0.742
			c-1.778,0-2.354-1.486-6.249-2.056c-14.546-2.126-24.71-14.979-22.704-28.708c1.816-12.425,12.979-21.31,25.863-21.311
			c1.354,0,2.726,0.099,4.109,0.3c4.913,0.719,12.346,3.767,15.959,6.553c0.563,0.162,1.273,0.238,2.1,0.238
			c7.933,0,26.798-6.917,33.508-10.458l107.148-72.658c40.536-23.746,71.874-55.65,72.092-57.68
			c-1.156-4.959-1.66-17.243-0.452-22.708C349.523,124.286,362.029,113.595,375.469,113.595 M375.469,103.263
			c-18.473,0-35.059,14.378-39.44,34.188c-1.27,5.745-1.104,15.292-0.354,22.044c-7.775,8.294-33.917,32.619-66.419,51.659
			l-0.294,0.172l-0.283,0.192l-106.643,72.315c-6.541,3.322-20.962,8.237-26.964,8.936c-5.142-3.084-12.317-5.796-17.816-6.599
			c-1.853-0.271-3.737-0.408-5.599-0.408c-8.65,0-17.036,2.955-23.615,8.321c-6.797,5.544-11.228,13.294-12.476,21.825
			c-2.607,17.849,9.196,34.668,26.87,39.478c-0.188,1.922-0.21,3.78-0.231,5.527c-0.019,1.657-0.041,3.372-0.168,5.241
			c-1.5,22.011,13.076,40.995,32.493,42.319c0.714,0.048,1.438,0.072,2.15,0.072c18.628,0,34.345-16.513,35.782-37.595
			c0.412-6.056-0.372-12.014-2.281-17.532c0.926-1.242,2.09-2.626,3.484-3.956l180.422-123.065l-1.628-2.388l0.639,0.777
			l1.046,1.575l0.047-0.033c-0.034,0.025-0.07,0.049-0.104,0.073c0.052-0.036,0.104-0.071,0.156-0.106l2.369-1.569
			c2.808-1.634,7.143-2.653,10.489-3.161c4.58,5.123,10.548,8.942,17.299,10.991c3.64,1.105,7.394,1.666,11.157,1.666
			c16.122,0,29.984-9.989,34.499-24.858c5.377-17.705-4.407-36.603-22-43.592c1.582-3.202,2.792-6.969,3.804-11.554
			c2.413-10.905,0.905-22.055-4.241-31.395c-5.389-9.777-14.069-16.426-24.444-18.72
			C380.645,103.546,378.052,103.263,375.469,103.263L375.469,103.263z"/>
		<path fill="none" stroke="#010101" stroke-width="3" stroke-linecap="round" stroke-miterlimit="10" d="M363.88,124.995
			c0,0-12.628,7.654-11.863,24.875"/>
		<path fill="none" stroke="#010101" stroke-width="3" stroke-linecap="round" stroke-miterlimit="10" d="M338.048,183.547
			c0,0-10.333,9.185-13.777,11.48"/>
		<path fill="none" stroke="#010101" stroke-width="3" stroke-linecap="round" stroke-miterlimit="10" d="M315.086,203.064
			c0,0-73.286,52.047-87.063,58.936"/>
		
			<line fill="none" stroke="#010101" stroke-width="3" stroke-linecap="round" stroke-miterlimit="10" x1="343.979" y1="176.851" x2="346.372" y2="174.076"/>
		<path fill="none" stroke="#010101" stroke-width="3" stroke-linecap="round" stroke-miterlimit="10" d="M372.204,122.986
			c0,0,3.731-0.861,6.6,0.861"/>
		<path fill="none" stroke="#010101" stroke-width="3" stroke-linecap="round" stroke-miterlimit="10" d="M400.044,180.964
			c0,0-6.601-3.158-11.193-0.574"/>
		<path fill="none" stroke="#010101" stroke-width="3" stroke-linecap="round" stroke-miterlimit="10" d="M138.09,344.661
			c0,0-12.245,0-16.837,12.247"/>
		<path fill="none" stroke="#010101" stroke-width="3" stroke-linecap="round" stroke-miterlimit="10" d="M113.024,302.087
			c0,0-6.314-0.575-7.462,1.147"/>
		<path fill="none" stroke="#010101" stroke-width="3" stroke-linecap="round" stroke-miterlimit="10" d="M98.1,308.401
			c0,0-8.324,5.739-5.74,18.081"/>
		<path fill="#FFFFFF" d="M427.537,317.405c-2.008-13.729-15.426-23.137-29.972-21.011c-4.913,0.719-12.347,3.767-15.96,6.553
			c-5.965,1.719-28.199-6.31-35.608-10.22L238.849,220.07c-40.537-23.746-71.874-55.65-72.091-57.68
			c1.154-4.959,1.659-17.243,0.45-22.708c-3.864-17.475-19.455-28.887-34.823-25.488c-15.366,3.398-24.693,20.32-20.828,37.794
			c2.288,10.343,4.959,14.286,12.985,18.567c-5.222-1.787-7.405,2.274-13.212,4.037c-14.066,4.272-22.202,18.496-18.17,31.772
			c4.03,13.276,18.701,20.579,32.768,16.307c6.733-2.044,12.097-6.375,15.428-11.788c1.256-0.27,13.375,0.577,20.86,5.091
			l2.678,1.774c0.065,0.047,0.125,0.084,0.19,0.131l-0.019-0.019l181.065,123.504c4.762,4.332,7.607,9.146,8.649,11.107
			c-2.675,5.1-4.048,11.247-3.603,17.775c1.115,16.354,13.165,28.852,26.922,27.916c13.752-0.938,23.999-14.955,22.885-31.307
			c-0.647-9.505,1.105-14.412-5.119-19.432c4.531,1.977,3.625-0.531,8.97-1.313C419.379,343.987,429.543,331.135,427.537,317.405z"
			/>
		<path fill="#BBBCBC" d="M141.355,210.884c0,0-11.427,7.871-27.116,3.662c-15.689-4.209-21.812-8.036-21.431-20.666l-3.827,7.653
			l3.827,14.16c0,0,14.926,10.333,16.456,10.716c1.53,0.382,15.308,0.766,16.839,0.766c1.53,0,12.629-8.42,12.629-8.42
			L141.355,210.884z"/>
		<path fill="#BBBCBC" d="M109.646,144.513c0,0,4.208,13.011,11.48,16.456c7.271,3.444,13.013,8.036,18.753,8.036
			c0,0-12.245,3.444-21.814-0.765c-9.567-4.21-12.246-20.666-12.246-20.666L109.646,144.513z"/>
		<path fill="#BBBCBC" d="M164.754,129.971c0,0,8.419,22.961-9.185,37.887c0,0,13.395-3.828,13.395-11.481
			C168.964,144.292,167.433,132.649,164.754,129.971z"/>
		<path fill="#BBBCBC" d="M141.355,210.884c0,0,7.708-7.054,21.103-0.931c0,0,41.714,28.318,63.91,43.244
			c22.196,14.924,100.646,70.417,111.745,78.453s16.665,20.824,16.665,20.824l-127.645-87.797l-41.331-28.318l-40.949-20.282
			L141.355,210.884z"/>
		<path fill="#BBBCBC" d="M398.962,347.339c-5.356,0-25.257-13.777-26.022-18.369c0,0,23.343,13.014,35.207,11.865
			c11.864-1.149,18.369-18.508,18.369-11.482c0,0.386-3.062,16.84-8.038,17.986C413.504,348.486,398.962,347.339,398.962,347.339z"
			/>
		<path fill="#BBBCBC" d="M349.596,366.475l1.53,20.665c0,0,5.355,6.889,10.716,8.802c5.357,1.914,14.923,4.211,17.603,4.211
			c2.679,0,14.926-5.741,14.926-5.741l7.653-16.456l0.766-4.593l-0.766-5.357c0,0-9.568,20.667-20.283,21.432
			c-10.714,0.764-18.75-0.768-21.43-5.742C357.631,378.722,349.211,372.213,349.596,366.475z"/>
		<path fill="#010101" d="M137.857,113.595c13.438,0,25.947,10.69,29.351,26.087c1.209,5.465,0.704,17.749-0.45,22.708
			c0.217,2.03,31.554,33.934,72.091,57.68l107.148,72.658c6.711,3.541,25.575,10.458,33.508,10.458c0.827,0,1.536-0.076,2.101-0.238
			c3.613-2.786,11.047-5.834,15.96-6.553c1.383-0.201,2.755-0.3,4.107-0.3c12.886,0,24.047,8.886,25.864,21.311
			c2.006,13.729-8.158,26.582-22.704,28.708c-3.896,0.569-4.469,2.056-6.247,2.056c-0.664,0-1.492-0.207-2.723-0.742
			c6.225,5.02,4.472,9.927,5.119,19.432c1.114,16.352-9.133,30.369-22.885,31.307c-0.487,0.034-0.968,0.049-1.451,0.049
			c-13.14,0-24.396-12.188-25.471-27.965c-0.445-6.528,0.928-12.676,3.603-17.775c-1.042-1.962-3.888-6.775-8.649-11.107
			L165.064,217.862l0.019,0.019c-0.065-0.047-0.125-0.084-0.19-0.131l-2.678-1.774c-6.679-4.029-17.047-5.137-20.095-5.137
			c-0.368,0-0.629,0.017-0.765,0.045c-3.331,5.412-8.694,9.743-15.428,11.788c-2.724,0.827-5.469,1.22-8.157,1.22
			c-11.19,0-21.36-6.822-24.61-17.527c-4.032-13.276,4.104-27.5,18.17-31.772c4.798-1.456,7.121-4.481,10.729-4.481
			c0.76,0,1.576,0.134,2.483,0.444c-8.026-4.281-10.697-8.224-12.985-18.567c-3.865-17.475,5.462-34.396,20.828-37.794
			C134.213,113.79,136.043,113.594,137.857,113.595 M137.858,103.263L137.858,103.263c-2.583-0.001-5.175,0.283-7.704,0.842
			c-10.375,2.294-19.055,8.943-24.444,18.72c-5.147,9.34-6.654,20.489-4.242,31.395c1.014,4.585,2.223,8.352,3.805,11.554
			c-17.595,6.99-27.377,25.887-22,43.593c4.514,14.868,18.378,24.857,34.498,24.857c3.765,0,7.519-0.561,11.159-1.666
			c6.751-2.049,12.718-5.868,17.298-10.99c3.35,0.509,7.684,1.526,10.49,3.16l2.366,1.567c0.05,0.036,0.101,0.07,0.152,0.104
			c-0.032-0.022-0.065-0.045-0.1-0.069l0.05,0.033l1.031-1.556l0.631-0.764l-1.606,2.355l180.422,123.065
			c1.394,1.33,2.558,2.714,3.483,3.956c-1.909,5.519-2.692,11.477-2.281,17.53c1.438,21.084,17.155,37.597,35.781,37.597
			c0.715,0,1.438-0.024,2.153-0.072c19.415-1.324,33.992-20.309,32.491-42.32c-0.127-1.868-0.147-3.583-0.168-5.24
			c-0.021-1.747-0.044-3.605-0.231-5.527c17.674-4.81,29.479-21.629,26.869-39.476c-1.247-8.533-5.679-16.283-12.475-21.827
			c-6.581-5.366-14.966-8.321-23.613-8.321c-1.862,0-3.748,0.137-5.604,0.408c-5.497,0.803-12.673,3.515-17.813,6.599
			c-6.002-0.698-20.424-5.613-26.965-8.936l-106.643-72.315l-0.283-0.192l-0.294-0.172c-32.504-19.041-58.644-43.365-66.419-51.659
			c0.75-6.753,0.916-16.3-0.355-22.044C172.917,117.642,156.33,103.264,137.858,103.263L137.858,103.263z"/>
		<path fill="none" stroke="#010101" stroke-width="3" stroke-linecap="round" stroke-miterlimit="10" d="M149.447,124.995
			c0,0,12.627,7.654,11.863,24.875"/>
		<path fill="none" stroke="#010101" stroke-width="3" stroke-linecap="round" stroke-miterlimit="10" d="M175.278,183.547
			c0,0,10.333,9.185,13.778,11.48"/>
		<path fill="none" stroke="#010101" stroke-width="3" stroke-linecap="round" stroke-miterlimit="10" d="M198.24,203.064
			c0,0,73.285,52.047,87.062,58.936"/>
		
			<line fill="none" stroke="#010101" stroke-width="3" stroke-linecap="round" stroke-miterlimit="10" x1="169.346" y1="176.851" x2="166.955" y2="174.076"/>
		<path fill="none" stroke="#010101" stroke-width="3" stroke-linecap="round" stroke-miterlimit="10" d="M141.123,122.986
			c0,0-3.731-0.861-6.601,0.861"/>
		<path fill="none" stroke="#010101" stroke-width="3" stroke-linecap="round" stroke-miterlimit="10" d="M113.282,180.964
			c0,0,6.602-3.158,11.194-0.574"/>
		<path fill="none" stroke="#010101" stroke-width="3" stroke-linecap="round" stroke-miterlimit="10" d="M375.236,344.661
			c0,0,12.246,0,16.837,12.247"/>
		<path fill="none" stroke="#010101" stroke-width="3" stroke-linecap="round" stroke-miterlimit="10" d="M400.302,302.087
			c0,0,6.313-0.575,7.463,1.147"/>
		<path fill="none" stroke="#010101" stroke-width="3" stroke-linecap="round" stroke-miterlimit="10" d="M415.227,308.401
			c0,0,8.324,5.739,5.74,18.081"/>
		<path fill="#FFFFFF" d="M85.789,317.405c2.008-13.729,15.426-23.137,29.972-21.011c4.913,0.719,12.346,3.767,15.959,6.553
			c5.965,1.719,28.199-6.31,35.608-10.22l107.148-72.658c40.536-23.746,71.874-55.65,72.092-57.68
			c-1.156-4.959-1.66-17.243-0.452-22.708c3.864-17.475,19.455-28.887,34.823-25.488c15.368,3.398,24.693,20.32,20.828,37.794
			c-2.288,10.343-4.959,14.286-12.985,18.567c5.223-1.787,7.406,2.274,13.215,4.037c14.063,4.272,22.2,18.496,18.169,31.772
			c-4.03,13.276-18.702,20.579-32.768,16.307c-6.734-2.044-12.098-6.375-15.428-11.788c-1.258-0.27-13.375,0.577-20.86,5.091
			l-2.679,1.774c-0.062,0.047-0.124,0.084-0.189,0.131l0.019-0.019L167.197,341.366c-4.762,4.332-7.606,9.146-8.65,11.107
			c2.675,5.1,4.048,11.247,3.604,17.775c-1.115,16.354-13.167,28.852-26.922,27.916c-13.753-0.938-24-14.955-22.885-31.307
			c0.646-9.505-1.106-14.412,5.118-19.432c-4.531,1.977-3.624-0.531-8.969-1.313C93.947,343.987,83.783,331.135,85.789,317.405z"/>
		<polygon fill="#BBBCBC" points="239.571,290.318 204.841,266.783 212.304,260.756 247.033,285.151 		"/>
		<path fill="#BBBCBC" d="M371.972,210.884c0,0,11.425,7.871,27.114,3.662c15.691-4.209,21.814-8.036,21.432-20.666l3.826,7.653
			l-3.826,14.16c0,0-14.925,10.333-16.456,10.716c-1.53,0.382-15.308,0.766-16.838,0.766c-1.531,0-12.63-8.42-12.63-8.42
			L371.972,210.884z"/>
		<path fill="#BBBCBC" d="M403.68,144.513c0,0-4.208,13.011-11.48,16.456c-7.272,3.444-13.013,8.036-18.753,8.036
			c0,0,12.245,3.444,21.813-0.765c9.568-4.21,12.246-20.666,12.246-20.666L403.68,144.513z"/>
		<path fill="#BBBCBC" d="M348.572,129.971c0,0-8.42,22.961,9.185,37.887c0,0-13.396-3.828-13.396-11.481
			C344.361,144.292,345.893,132.649,348.572,129.971z"/>
		<path fill="#BBBCBC" d="M371.972,210.884c0,0-7.708-7.054-21.104-0.931c0,0-41.715,28.318-63.91,43.244
			c-22.195,14.924-100.647,70.417-111.746,78.453c-11.099,8.036-16.665,20.824-16.665,20.824l127.645-87.797l41.331-28.318
			l40.949-20.282L371.972,210.884z"/>
		<path fill="#BBBCBC" d="M114.364,347.339c5.357,0,25.257-13.777,26.023-18.369c0,0-23.343,13.014-35.207,11.865
			c-11.864-1.149-18.369-18.508-18.369-11.482c0,0.386,3.062,16.84,8.037,17.986C99.822,348.486,114.364,347.339,114.364,347.339z"
			/>
		<path fill="#BBBCBC" d="M163.732,366.475L162.2,387.14c0,0-5.357,6.889-10.715,8.802c-5.358,1.914-14.924,4.211-17.604,4.211
			c-2.68,0-14.926-5.741-14.926-5.741l-7.654-16.456l-0.766-4.593l0.766-5.357c0,0,9.568,20.667,20.283,21.432
			c10.715,0.764,18.751-0.768,21.431-5.742C155.695,378.722,164.115,372.213,163.732,366.475z"/>
		<path fill="#010101" d="M375.469,113.595c1.814,0,3.644,0.195,5.472,0.599c15.368,3.398,24.693,20.32,20.828,37.794
			c-2.288,10.343-4.959,14.286-12.985,18.567c0.909-0.31,1.726-0.444,2.484-0.444c3.607,0,5.93,3.025,10.73,4.481
			c14.063,4.272,22.2,18.496,18.169,31.772c-3.251,10.705-13.422,17.527-24.612,17.527c-2.687,0-5.431-0.393-8.155-1.22
			c-6.734-2.044-12.098-6.375-15.428-11.788c-0.137-0.029-0.397-0.045-0.765-0.045c-3.048,0-13.417,1.108-20.096,5.137l-2.679,1.774
			c-0.062,0.047-0.124,0.084-0.189,0.131l0.019-0.019L167.197,341.366c-4.762,4.332-7.606,9.146-8.65,11.107
			c2.675,5.1,4.048,11.247,3.604,17.775c-1.076,15.777-12.331,27.965-25.474,27.965c-0.48,0-0.962-0.015-1.448-0.049
			c-13.753-0.938-24-14.955-22.885-31.307c0.646-9.505-1.106-14.412,5.118-19.432c-1.23,0.535-2.059,0.742-2.721,0.742
			c-1.778,0-2.354-1.486-6.249-2.056c-14.546-2.126-24.71-14.979-22.704-28.708c1.816-12.425,12.979-21.31,25.863-21.311
			c1.354,0,2.726,0.099,4.109,0.3c4.913,0.719,12.346,3.767,15.959,6.553c0.563,0.162,1.273,0.238,2.1,0.238
			c7.933,0,26.798-6.917,33.508-10.458l107.148-72.658c40.536-23.746,71.874-55.65,72.092-57.68
			c-1.156-4.959-1.66-17.243-0.452-22.708C349.523,124.286,362.029,113.595,375.469,113.595 M375.469,103.263
			c-18.473,0-35.059,14.378-39.44,34.188c-1.27,5.745-1.104,15.292-0.354,22.044c-7.775,8.294-33.917,32.619-66.419,51.659
			l-0.294,0.172l-0.283,0.192l-106.643,72.315c-6.541,3.322-20.962,8.237-26.964,8.936c-5.142-3.084-12.317-5.796-17.816-6.599
			c-1.853-0.271-3.737-0.408-5.599-0.408c-8.65,0-17.036,2.955-23.615,8.321c-6.797,5.544-11.228,13.294-12.476,21.825
			c-2.607,17.849,9.196,34.668,26.87,39.478c-0.188,1.922-0.21,3.78-0.231,5.527c-0.019,1.657-0.041,3.372-0.168,5.241
			c-1.5,22.011,13.076,40.995,32.493,42.319c0.714,0.048,1.438,0.072,2.15,0.072c18.628,0,34.345-16.513,35.782-37.595
			c0.412-6.056-0.372-12.014-2.281-17.532c0.926-1.242,2.09-2.626,3.484-3.956l180.422-123.065l-1.628-2.388l0.639,0.777
			l1.046,1.575l0.047-0.033c-0.034,0.025-0.07,0.049-0.104,0.073c0.052-0.036,0.104-0.071,0.156-0.106l2.369-1.569
			c2.808-1.634,7.143-2.653,10.489-3.161c4.58,5.123,10.548,8.942,17.299,10.991c3.64,1.105,7.394,1.666,11.157,1.666
			c16.122,0,29.984-9.989,34.499-24.858c5.377-17.705-4.407-36.603-22-43.592c1.582-3.202,2.792-6.969,3.804-11.554
			c2.413-10.905,0.905-22.055-4.241-31.395c-5.389-9.777-14.069-16.426-24.444-18.72
			C380.645,103.546,378.052,103.263,375.469,103.263L375.469,103.263z"/>
		<path fill="none" stroke="#010101" stroke-width="3" stroke-linecap="round" stroke-miterlimit="10" d="M363.88,124.995
			c0,0-12.628,7.654-11.863,24.875"/>
		<path fill="none" stroke="#010101" stroke-width="3" stroke-linecap="round" stroke-miterlimit="10" d="M338.048,183.547
			c0,0-10.333,9.185-13.777,11.48"/>
		<path fill="none" stroke="#010101" stroke-width="3" stroke-linecap="round" stroke-miterlimit="10" d="M315.086,203.064
			c0,0-73.286,52.047-87.063,58.936"/>
		
			<line fill="none" stroke="#010101" stroke-width="3" stroke-linecap="round" stroke-miterlimit="10" x1="343.979" y1="176.851" x2="346.372" y2="174.076"/>
		<path fill="none" stroke="#010101" stroke-width="3" stroke-linecap="round" stroke-miterlimit="10" d="M372.204,122.986
			c0,0,3.731-0.861,6.6,0.861"/>
		<path fill="none" stroke="#010101" stroke-width="3" stroke-linecap="round" stroke-miterlimit="10" d="M400.044,180.964
			c0,0-6.601-3.158-11.193-0.574"/>
		<path fill="none" stroke="#010101" stroke-width="3" stroke-linecap="round" stroke-miterlimit="10" d="M138.09,344.661
			c0,0-12.245,0-16.837,12.247"/>
		<path fill="none" stroke="#010101" stroke-width="3" stroke-linecap="round" stroke-miterlimit="10" d="M113.024,302.087
			c0,0-6.314-0.575-7.462,1.147"/>
		<path fill="none" stroke="#010101" stroke-width="3" stroke-linecap="round" stroke-miterlimit="10" d="M98.1,308.401
			c0,0-8.324,5.739-5.74,18.081"/>
		<path fill="#FFFFFF" d="M427.537,317.405c-2.008-13.729-15.426-23.137-29.972-21.011c-4.913,0.719-12.347,3.767-15.96,6.553
			c-5.965,1.719-28.199-6.31-35.608-10.22L238.849,220.07c-40.537-23.746-71.874-55.65-72.091-57.68
			c1.154-4.959,1.659-17.243,0.45-22.708c-3.864-17.475-19.455-28.887-34.823-25.488c-15.366,3.398-24.693,20.32-20.828,37.794
			c2.288,10.343,4.959,14.286,12.985,18.567c-5.222-1.787-7.405,2.274-13.212,4.037c-14.066,4.272-22.202,18.496-18.17,31.772
			c4.03,13.276,18.701,20.579,32.768,16.307c6.733-2.044,12.097-6.375,15.428-11.788c1.256-0.27,13.375,0.577,20.86,5.091
			l2.678,1.774c0.065,0.047,0.125,0.084,0.19,0.131l-0.019-0.019l181.065,123.504c4.762,4.332,7.607,9.146,8.649,11.107
			c-2.675,5.1-4.048,11.247-3.603,17.775c1.115,16.354,13.165,28.852,26.922,27.916c13.752-0.938,23.999-14.955,22.885-31.307
			c-0.647-9.505,1.105-14.412-5.119-19.432c4.531,1.977,3.625-0.531,8.97-1.313C419.379,343.987,429.543,331.135,427.537,317.405z"
			/>
		<path fill="#BBBCBC" d="M141.355,210.884c0,0-11.427,7.871-27.116,3.662c-15.689-4.209-21.812-8.036-21.431-20.666l-3.827,7.653
			l3.827,14.16c0,0,14.926,10.333,16.456,10.716c1.53,0.382,15.308,0.766,16.839,0.766c1.53,0,12.629-8.42,12.629-8.42
			L141.355,210.884z"/>
		<path fill="#BBBCBC" d="M109.646,144.513c0,0,4.208,13.011,11.48,16.456c7.271,3.444,13.013,8.036,18.753,8.036
			c0,0-12.245,3.444-21.814-0.765c-9.567-4.21-12.246-20.666-12.246-20.666L109.646,144.513z"/>
		<path fill="#BBBCBC" d="M164.754,129.971c0,0,8.419,22.961-9.185,37.887c0,0,13.395-3.828,13.395-11.481
			C168.964,144.292,167.433,132.649,164.754,129.971z"/>
		<path fill="#BBBCBC" d="M141.355,210.884c0,0,7.708-7.054,21.103-0.931c0,0,41.714,28.318,63.91,43.244
			c22.196,14.924,100.646,70.417,111.745,78.453s16.665,20.824,16.665,20.824l-127.645-87.797l-41.331-28.318l-40.949-20.282
			L141.355,210.884z"/>
		<path fill="#BBBCBC" d="M398.962,347.339c-5.356,0-25.257-13.777-26.022-18.369c0,0,23.343,13.014,35.207,11.865
			c11.864-1.149,18.369-18.508,18.369-11.482c0,0.386-3.062,16.84-8.038,17.986C413.504,348.486,398.962,347.339,398.962,347.339z"
			/>
		<path fill="#BBBCBC" d="M349.596,366.475l1.53,20.665c0,0,5.355,6.889,10.716,8.802c5.357,1.914,14.923,4.211,17.603,4.211
			c2.679,0,14.926-5.741,14.926-5.741l7.653-16.456l0.766-4.593l-0.766-5.357c0,0-9.568,20.667-20.283,21.432
			c-10.714,0.764-18.75-0.768-21.43-5.742C357.631,378.722,349.211,372.213,349.596,366.475z"/>
		<path fill="#010101" d="M137.857,113.595c13.438,0,25.947,10.69,29.351,26.087c1.209,5.465,0.704,17.749-0.45,22.708
			c0.217,2.03,31.554,33.934,72.091,57.68l107.148,72.658c6.711,3.541,25.575,10.458,33.508,10.458c0.827,0,1.536-0.076,2.101-0.238
			c3.613-2.786,11.047-5.834,15.96-6.553c1.383-0.201,2.755-0.3,4.107-0.3c12.886,0,24.047,8.886,25.864,21.311
			c2.006,13.729-8.158,26.582-22.704,28.708c-3.896,0.569-4.469,2.056-6.247,2.056c-0.664,0-1.492-0.207-2.723-0.742
			c6.225,5.02,4.472,9.927,5.119,19.432c1.114,16.352-9.133,30.369-22.885,31.307c-0.487,0.034-0.968,0.049-1.451,0.049
			c-13.14,0-24.396-12.188-25.471-27.965c-0.445-6.528,0.928-12.676,3.603-17.775c-1.042-1.962-3.888-6.775-8.649-11.107
			L165.064,217.862l0.019,0.019c-0.065-0.047-0.125-0.084-0.19-0.131l-2.678-1.774c-6.679-4.029-17.047-5.137-20.095-5.137
			c-0.368,0-0.629,0.017-0.765,0.045c-3.331,5.412-8.694,9.743-15.428,11.788c-2.724,0.827-5.469,1.22-8.157,1.22
			c-11.19,0-21.36-6.822-24.61-17.527c-4.032-13.276,4.104-27.5,18.17-31.772c4.798-1.456,7.121-4.481,10.729-4.481
			c0.76,0,1.576,0.134,2.483,0.444c-8.026-4.281-10.697-8.224-12.985-18.567c-3.865-17.475,5.462-34.396,20.828-37.794
			C134.213,113.79,136.043,113.594,137.857,113.595 M137.858,103.263L137.858,103.263c-2.583-0.001-5.175,0.283-7.704,0.842
			c-10.375,2.294-19.055,8.943-24.444,18.72c-5.147,9.34-6.654,20.489-4.242,31.395c1.014,4.585,2.223,8.352,3.805,11.554
			c-17.595,6.99-27.377,25.887-22,43.593c4.514,14.868,18.378,24.857,34.498,24.857c3.765,0,7.519-0.561,11.159-1.666
			c6.751-2.049,12.718-5.868,17.298-10.99c3.35,0.509,7.684,1.526,10.49,3.16l2.366,1.567c0.05,0.036,0.101,0.07,0.152,0.104
			c-0.032-0.022-0.065-0.045-0.1-0.069l0.05,0.033l1.031-1.556l0.631-0.764l-1.606,2.355l180.422,123.065
			c1.394,1.33,2.558,2.714,3.483,3.956c-1.909,5.519-2.692,11.477-2.281,17.53c1.438,21.084,17.155,37.597,35.781,37.597
			c0.715,0,1.438-0.024,2.153-0.072c19.415-1.324,33.992-20.309,32.491-42.32c-0.127-1.868-0.147-3.583-0.168-5.24
			c-0.021-1.747-0.044-3.605-0.231-5.527c17.674-4.81,29.479-21.629,26.869-39.476c-1.247-8.533-5.679-16.283-12.475-21.827
			c-6.581-5.366-14.966-8.321-23.613-8.321c-1.862,0-3.748,0.137-5.604,0.408c-5.497,0.803-12.673,3.515-17.813,6.599
			c-6.002-0.698-20.424-5.613-26.965-8.936l-106.643-72.315l-0.283-0.192l-0.294-0.172c-32.504-19.041-58.644-43.365-66.419-51.659
			c0.75-6.753,0.916-16.3-0.355-22.044C172.917,117.642,156.33,103.264,137.858,103.263L137.858,103.263z"/>
		<path fill="none" stroke="#010101" stroke-width="3" stroke-linecap="round" stroke-miterlimit="10" d="M130.667,124.995
			c0,0-12.628,7.654-11.864,24.875"/>
		<path fill="none" stroke="#010101" stroke-width="3" stroke-linecap="round" stroke-miterlimit="10" d="M175.278,183.547
			c0,0,10.333,9.185,13.778,11.48"/>
		<path fill="none" stroke="#010101" stroke-width="3" stroke-linecap="round" stroke-miterlimit="10" d="M198.24,203.064
			c0,0,73.285,52.047,87.062,58.936"/>
		
			<line fill="none" stroke="#010101" stroke-width="3" stroke-linecap="round" stroke-miterlimit="10" x1="169.346" y1="176.851" x2="166.955" y2="174.076"/>
		<path fill="none" stroke="#010101" stroke-width="3" stroke-linecap="round" stroke-miterlimit="10" d="M138.99,122.986
			c0,0,3.731-0.861,6.601,0.861"/>
		<path fill="none" stroke="#010101" stroke-width="3" stroke-linecap="round" stroke-miterlimit="10" d="M113.282,180.964
			c0,0,6.602-3.158,11.194-0.574"/>
		<path fill="none" stroke="#010101" stroke-width="3" stroke-linecap="round" stroke-miterlimit="10" d="M375.236,344.661
			c0,0,12.246,0,16.837,12.247"/>
		<path fill="none" stroke="#010101" stroke-width="3" stroke-linecap="round" stroke-miterlimit="10" d="M414.409,310.099
			c0,0-4.677-4.28-6.634-3.605"/>
		<path fill="none" stroke="#010101" stroke-width="3" stroke-linecap="round" stroke-miterlimit="10" d="M398.709,306.088
			c0,0-10.102-0.472-15.517,10.916"/>
	</g>
</g>
<g id="Layer_2">
	<g>
	</g>
	<g>
	</g>
	<g>
	</g>
	<g>
	</g>
	<g>
	</g>
	<g>
	</g>
</g>
</svg>
